<?xml version="1.0" encoding="UTF-8" standalone="no"?>
<!DOCTYPE svg PUBLIC "-//W3C//DTD SVG 1.1//EN" "http://www.w3.org/Graphics/SVG/1.1/DTD/svg11.dtd">
<svg xmlns="http://www.w3.org/2000/svg" xmlns:xlink="http://www.w3.org/1999/xlink" version="1.1" width="161.788pt" height="161.788pt" viewBox="0 0 161.788 161.788">
<g enable-background="new">
<path transform="matrix(1,0,0,-1,13.649,148.13899)" stroke-width=".19925" stroke-linecap="butt" stroke-miterlimit="10" stroke-linejoin="miter" fill="none" stroke="#808080" d="M 17.93225 51.67088 L 17.93225 55.9226 M 89.66125 51.67088 L 89.66125 55.9226 M 125.52577 51.67088 L 125.52577 55.9226 "/>
<path transform="matrix(1,0,0,-1,13.649,148.13899)" stroke-width=".19925" stroke-linecap="butt" stroke-miterlimit="10" stroke-linejoin="miter" fill="none" stroke="#808080" d="M 51.67088 17.93225 L 55.9226 17.93225 M 51.67088 89.66125 L 55.9226 89.66125 M 51.67088 125.52577 L 55.9226 125.52577 "/>
<path transform="matrix(1,0,0,-1,13.649,148.13899)" stroke-width=".3985" stroke-linecap="butt" stroke-miterlimit="10" stroke-linejoin="miter" fill="none" stroke="#000000" d="M -13.44998 53.79675 L 145.94937 53.79675 "/>
<path transform="matrix(1,0,0,-1,159.59838,94.34224)" d="M 1.99252 0 L -1.19551 1.59401 L 0 0 L -1.19551 -1.59401 "/>
<path transform="matrix(1,0,0,-1,13.649,148.13899)" stroke-width=".3985" stroke-linecap="butt" stroke-miterlimit="10" stroke-linejoin="miter" fill="none" stroke="#000000" d="M 53.79675 -13.44998 L 53.79675 145.94937 "/>
<path transform="matrix(0,-1,-1,-0,67.44575,2.189621)" d="M 1.99252 0 L -1.19551 1.59401 L 0 0 L -1.19551 -1.59401 "/>
<symbol id="font_0_1">
<path d="M .57600006 0 C .59300008 0 .611 0 .611 .019999996 C .611 .040000008 .59300008 .040000008 .57600006 .040000008 L .035000005 .040000008 C .018 .040000008 0 .040000008 0 .019999996 C 0 0 .018 0 .035000005 0 L .57600006 0 Z "/>
</symbol>
<use xlink:href="#font_0_1" transform="matrix(9.9626,0,0,-9.9626,26.042897,104.1176)"/>
<symbol id="font_1_3">
<path d="M .07700001 .07700001 L .18300002 .18 C .33900003 .31800003 .39900003 .372 .39900003 .47200004 C .39900003 .586 .30900003 .666 .18700002 .666 C .074 .666 0 .574 0 .485 C 0 .42900003 .05 .42900003 .053000008 .42900003 C .07000001 .42900003 .105000007 .441 .105000007 .48200003 C .105000007 .508 .08700001 .53400006 .052000006 .53400006 C .044000005 .53400006 .042000008 .53400006 .039 .53300008 C .062000004 .59800007 .11600001 .63500007 .17400001 .63500007 C .26500003 .63500007 .308 .554 .308 .47200004 C .308 .39200003 .25800003 .31300003 .20300003 .25100003 L .011000004 .037 C 0 .026 0 .024 0 0 L .37100003 0 L .39900003 .17400001 L .374 .17400001 C .36900003 .14400001 .36200003 .1 .352 .085 C .345 .07700001 .279 .07700001 .257 .07700001 L .07700001 .07700001 Z "/>
</symbol>
<use xlink:href="#font_1_3" transform="matrix(9.9626,0,0,-9.9626,33.46313,106.409)"/>
<use xlink:href="#font_1_3" transform="matrix(9.9626,0,0,-9.9626,101.31613,106.409)"/>
<symbol id="font_1_4">
<path d="M .266 .165 L .266 .078 C .266 .042000005 .26400004 .031000002 .19000001 .031000002 L .16900002 .031000002 L .16900002 0 C .21000001 .003 .26200003 .003 .30400003 .003 C .34600003 .003 .39900003 .003 .44000004 0 L .44000004 .031000002 L .41900004 .031000002 C .34500004 .031000002 .34300003 .042000005 .34300003 .078 L .34300003 .165 L .44300003 .165 L .44300003 .19600001 L .34300003 .19600001 L .34300003 .651 C .34300003 .671 .34300003 .67700007 .32700003 .67700007 C .31800003 .67700007 .31500004 .67700007 .307 .665 L 0 .19600001 L 0 .165 L .266 .165 M .272 .19600001 L .028 .19600001 L .272 .569 L .272 .19600001 Z "/>
</symbol>
<use xlink:href="#font_1_4" transform="matrix(9.9626,0,0,-9.9626,136.96195,106.409)"/>
<use xlink:href="#font_0_1" transform="matrix(9.9626,0,0,-9.9626,49.895898,130.7106)"/>
<use xlink:href="#font_1_3" transform="matrix(9.9626,0,0,-9.9626,57.31613,133.002)"/>
<use xlink:href="#font_1_3" transform="matrix(9.9626,0,0,-9.9626,57.31613,61.688997)"/>
<use xlink:href="#font_1_4" transform="matrix(9.9626,0,0,-9.9626,57.096956,25.824997)"/>
<clipPath id="cp2">
<path transform="matrix(1,0,0,-1,13.649,148.13899)" d="M -13.44998 -13.44998 L 147.9419 -13.44998 L 147.9419 147.9419 L -13.44998 147.9419 Z "/>
</clipPath>
<g clip-path="url(#cp2)">
<path transform="matrix(1,0,0,-1,13.649,148.13899)" stroke-width=".3985" stroke-linecap="butt" stroke-miterlimit="10" stroke-linejoin="miter" fill="none" stroke="#1d8db0" d="M 53.79675 53.79675 L 54.52129 53.82602 L 55.24582 53.91383 L 55.97035 54.06023 L 56.69489 54.26512 L 57.41942 54.5286 L 58.14395 54.85062 L 58.86848 55.23119 L 59.59302 55.67029 L 60.31757 56.16794 L 61.0421 56.72415 L 61.76663 57.33891 L 62.49117 58.01222 L 63.2157 58.74406 L 63.94023 59.53447 L 64.66476 60.38342 L 65.38931 61.29092 L 66.11383 62.25696 L 66.83838 63.28156 L 67.56291 64.3647 L 68.28745 65.5064 L 69.01198 66.70662 L 69.73651 67.96541 L 70.46106 69.28275 L 71.18558 70.65863 L 71.91013 72.09306 L 72.63464 73.58603 L 73.35919 75.13759 L 74.08372 76.74765 L 74.80826 78.41626 L 75.53279 80.14343 L 76.25732 81.92914 L 76.98187 83.77339 L 77.70639 85.67627 L 78.43094 87.63763 L 79.15546 89.65753 L 79.88 91.73598 L 80.60452 93.87299 L 81.32907 96.06853 L 82.05362 98.3227 L 82.77814 100.63535 L 83.50269 103.00652 L 84.2272 105.43628 L 84.95175 107.92455 L 85.67627 110.47139 L 86.40082 113.07686 L 87.12535 115.74078 L 87.84988 118.46326 L 88.57443 121.24428 L 89.29895 124.08385 L 90.0235 126.98207 L 90.74802 129.93875 L 91.47256 132.95395 L 92.1971 136.02773 L 92.92163 139.16004 L 93.64616 142.3509 L 94.3707 145.6004 L 95.09525 148.90837 L 95.81976 152.27489 L 96.54431 155.69992 L 97.26883 159.18352 L 97.99338 162.72566 L 98.71791 166.3265 L 99.44244 169.98575 L 100.16698 173.70352 L 100.89151 177.47989 L 101.61606 181.31475 L 102.34058 185.20819 L 103.06512 189.16031 L 103.78966 193.17086 L 104.51419 197.23992 L 105.23872 201.36754 L 105.96326 205.5537 L 106.68779 209.79843 L 107.41232 214.10186 L 108.13686 218.46369 L 108.8614 222.88404 L 109.58594 227.36295 L 110.31047 231.90039 L 111.035 236.49636 L 111.75954 241.15125 L 112.48407 245.86417 L 113.2086 250.63591 L 113.93315 255.46619 L 114.65767 260.35478 L 115.38222 265.3022 L 116.10675 270.30815 L 116.83128 275.37263 L 117.55582 280.49546 L 118.28035 285.6771 L 119.00488 290.917 L 119.72942 296.21546 L 120.45396 301.573 L 121.17848 306.98857 L 121.90303 312.46275 L 122.62756 317.9957 L 123.3521 323.58695 L 124.07663 329.23674 L 124.80116 334.94535 L 125.52571 340.71229 "/>
<path transform="matrix(1,0,0,-1,13.649,148.13899)" stroke-width=".79701" stroke-linecap="butt" stroke-dasharray="2.98883,2.98883" stroke-miterlimit="10" stroke-linejoin="miter" fill="none" stroke="#6f4517" d="M 53.79675 53.79675 L 54.52129 57.4012 L 55.24582 58.89423 L 55.97035 60.03995 L 56.69489 61.00577 L 57.41942 61.85669 L 58.14395 62.62598 L 58.86848 63.33339 L 59.59302 63.99185 L 60.31757 64.6103 L 61.0421 65.19522 L 61.76663 65.75157 L 62.49117 66.28316 L 63.2157 66.79301 L 63.94023 67.28362 L 64.66476 67.75697 L 65.38931 68.21481 L 66.11383 68.65855 L 66.83838 69.08942 L 67.56291 69.50847 L 68.28745 69.91663 L 69.01198 70.31473 L 69.73651 70.70341 L 70.46106 71.08339 L 71.18558 71.4552 L 71.91013 71.81905 L 72.63464 72.17596 L 73.35919 72.52608 L 74.08372 72.86977 L 74.80826 73.20737 L 75.53279 73.53918 L 76.25732 73.86554 L 76.98187 74.18666 L 77.70639 74.50282 L 78.43094 74.81418 L 79.15546 75.12103 L 79.88 75.42351 L 80.60452 75.72183 L 81.32907 76.01614 L 82.05362 76.3066 L 82.77814 76.59335 L 83.50269 76.87657 L 84.2272 77.15634 L 84.95175 77.43279 L 85.67627 77.70605 L 86.40082 77.9762 L 87.12535 78.2434 L 87.84988 78.50769 L 88.57443 78.7692 L 89.29895 79.02798 L 90.0235 79.28413 L 90.74802 79.53775 L 91.47256 79.78888 L 92.1971 80.03763 L 92.92163 80.28403 L 93.64616 80.52815 L 94.3707 80.77008 L 95.09525 81.00984 L 95.81976 81.24751 L 96.54431 81.48314 L 97.26883 81.71678 L 97.99338 81.94847 L 98.71791 82.1783 L 99.44244 82.40625 L 100.16698 82.63245 L 100.89151 82.85684 L 101.61606 83.07954 L 102.34058 83.30055 L 103.06512 83.51991 L 103.78966 83.73767 L 104.51419 83.95386 L 105.23872 84.1685 L 105.96326 84.38162 L 106.68779 84.59329 L 107.41232 84.80351 L 108.13686 85.01231 L 108.8614 85.21971 L 109.58594 85.4258 L 110.31047 85.6305 L 111.035 85.83391 L 111.75954 86.03603 L 112.48407 86.23692 L 113.2086 86.43652 L 113.93315 86.63498 L 114.65767 86.83218 L 115.38222 87.02826 L 116.10675 87.22316 L 116.83128 87.41693 L 117.55582 87.60959 L 118.28035 87.80118 L 119.00488 87.99167 L 119.72942 88.18112 L 120.45396 88.36952 L 121.17848 88.55693 L 121.90303 88.7433 L 122.62756 88.92871 L 123.3521 89.11314 L 124.07663 89.2966 L 124.80116 89.4791 L 125.52571 89.66072 "/>
<path transform="matrix(1,0,0,-1,13.649,148.13899)" stroke-width=".3985" stroke-linecap="butt" stroke-dasharray="2.98883,2.98883" stroke-miterlimit="10" stroke-linejoin="miter" fill="none" stroke="#000000" d="M 0 0 L 4.48306 4.48306 L 8.96613 8.96613 L 13.44919 13.44919 L 17.93225 17.93225 L 22.41531 22.41531 L 26.89838 26.89838 L 31.38144 31.38144 L 35.8645 35.8645 L 40.34756 40.34756 L 44.83063 44.83063 L 49.31369 49.31369 L 53.79675 53.79675 L 58.27982 58.27982 L 62.76288 62.76288 L 67.24594 67.24594 L 71.729 71.729 L 76.21207 76.21207 L 80.69513 80.69513 L 85.17819 85.17819 L 89.66125 89.66125 L 94.14432 94.14432 L 98.62738 98.62738 L 103.11046 103.11046 L 107.59352 107.59352 "/>
<path transform="matrix(1,0,0,-1,13.649,148.13899)" stroke-width=".3985" stroke-linecap="butt" stroke-dasharray=".3985,1.99255" stroke-miterlimit="10" stroke-linejoin="miter" fill="none" stroke="#0000ff" d="M 89.66125 53.79675 L 89.66125 125.52577 L 53.79675 125.52577 "/>
<symbol id="font_3_1">
<path d="M .179 .38900004 C .126 .38200004 .076000008 .36 .043 .31700004 C .014999997 .28200004 0 .238 0 .194 C 0 .091 .085999999 0 .194 0 C .29700003 0 .388 .08800001 .388 .194 C .388 .29200004 .312 .39000003 .193 .39000003 C .18800001 .39000003 .184 .38900004 .179 .38900004 Z "/>
</symbol>
<use xlink:href="#font_3_1" transform="matrix(9.9626,0,0,-9.9626,101.36694,95.96409)" fill="#0000ff"/>
<use xlink:href="#font_3_1" transform="matrix(9.9626,0,0,-9.9626,101.36694,24.236086)" fill="#0000ff"/>
<symbol id="font_1_1">
<path d="M .23200003 .00999999 C .23200003 .012999982 .23200003 .014999986 .215 .03199999 C .09 .15799999 .058 .347 .058 .5 C .058 .674 .096 .84800007 .21900001 .97300007 C .23200003 .985 .23200003 .98700007 .23200003 .99 C .23200003 .99700006 .22800002 1 .222 1 C .21200001 1 .12200001 .93200007 .06299999 .805 C .012000002 .69500008 0 .584 0 .5 C 0 .422 .011 .301 .066 .188 C .126 .065 .21200001 0 .222 0 C .22800002 0 .23200003 .0029999912 .23200003 .00999999 Z "/>
</symbol>
<use xlink:href="#font_1_1" transform="matrix(9.9626,0,0,-9.9626,86.3763,13.396641)" fill="#0000ff"/>
<use xlink:href="#font_1_3" transform="matrix(9.9626,0,0,-9.9626,89.76358,10.905991)" fill="#0000ff"/>
<symbol id="font_4_1">
<path d="M .117000009 .194 C .117000009 .26 .092 .29900003 .05300001 .29900003 C .020000004 .29900003 0 .274 0 .246 C 0 .21900001 .020000004 .193 .05300001 .193 C .065000008 .193 .078 .197 .08800001 .206 C .091 .208 .092 .209 .093 .209 C .094000007 .209 .095000009 .208 .095000009 .194 C .095000009 .12 .06000001 .060000004 .027000003 .026999996 C .016000003 .016000003 .016000003 .013999999 .016000003 .0109999929 C .016000003 .003999993 .021000006 0 .026 0 C .037 0 .117000009 .077 .117000009 .194 Z "/>
</symbol>
<symbol id="font_4_2">
<path d="M .314 .605 L .4 .605 C .42000003 .605 .43 .605 .43 .625 C .43 .63600006 .42000003 .63600006 .40300004 .63600006 L .32000003 .63600006 L .34100003 .75 C .34500004 .771 .35900004 .842 .365 .8540001 C .374 .873 .39100004 .888 .41200004 .888 C .416 .888 .44200004 .888 .461 .87 C .41700004 .86600008 .407 .8310001 .407 .816 C .407 .793 .425 .781 .444 .781 C .47 .781 .49900005 .8030001 .49900005 .8410001 C .49900005 .8870001 .45300005 .9100001 .41200004 .9100001 C .37800003 .9100001 .31500004 .8920001 .28500004 .793 C .279 .7720001 .27600003 .7620001 .252 .63600006 L .18300002 .63600006 C .164 .63600006 .15300001 .63600006 .15300001 .61700007 C .15300001 .605 .162 .605 .18100001 .605 L .24700001 .605 L .172 .21000001 C .15400002 .113000009 .13700001 .022 .08500001 .022 C .081 .022 .056 .022 .037 .040000008 C .083000008 .043000014 .09200001 .07900001 .09200001 .094000007 C .09200001 .117000009 .074 .12900001 .055 .12900001 C .029 .12900001 0 .10700001 0 .069000009 C 0 .024000004 .044 0 .08500001 0 C .14 0 .18 .059 .19800002 .09700001 C .23000002 .16000001 .25300003 .28100003 .254 .28800003 L .314 .605 Z "/>
</symbol>
<use xlink:href="#font_4_1" transform="matrix(9.9626,0,0,-9.9626,95.10278,12.828773)" fill="#0000ff"/>
<use xlink:href="#font_4_2" transform="matrix(9.9626,0,0,-9.9626,99.207378,12.948324)" fill="#0000ff"/>
<symbol id="font_1_2">
<path d="M .232 .5 C .232 .578 .22100002 .699 .16600001 .81200006 C .106 .93500009 .020000004 1 .009999998 1 C .0040000008 1 0 .99600008 0 .99 C 0 .98700007 0 .985 .019000002 .967 C .117000009 .86800006 .174 .709 .174 .5 C .174 .329 .137 .153 .012999997 .026999996 C 0 .014999986 0 .012999982 0 .00999999 C 0 .003999993 .0040000008 0 .009999998 0 C .020000004 0 .11000001 .06799999 .169 .195 C .22 .305 .232 .416 .232 .5 Z "/>
</symbol>
<use xlink:href="#font_1_1" transform="matrix(9.9626,0,0,-9.9626,105.6103,13.396641)" fill="#0000ff"/>
<use xlink:href="#font_1_3" transform="matrix(9.9626,0,0,-9.9626,108.99758,10.905991)" fill="#0000ff"/>
<use xlink:href="#font_1_2" transform="matrix(9.9626,0,0,-9.9626,114.04862,13.396641)" fill="#0000ff"/>
<use xlink:href="#font_1_2" transform="matrix(9.9626,0,0,-9.9626,117.92407,13.396641)" fill="#0000ff"/>
<use xlink:href="#font_3_1" transform="matrix(9.9626,0,0,-9.9626,65.502948,24.236086)" fill="#0000ff"/>
<path transform="matrix(1,0,0,-1,13.649,148.13899)" stroke-width=".3985" stroke-linecap="butt" stroke-dasharray=".3985,1.99255" stroke-miterlimit="10" stroke-linejoin="miter" fill="none" stroke="#ff0000" d="M 125.52577 53.79675 L 125.52577 89.66125 "/>
<use xlink:href="#font_3_1" transform="matrix(9.9626,0,0,-9.9626,137.23094,95.96409)" fill="#ff0000"/>
<use xlink:href="#font_3_1" transform="matrix(9.9626,0,0,-9.9626,137.23094,60.10009)" fill="#ff0000"/>
<use xlink:href="#font_4_2" transform="matrix(9.9626,0,0,-9.9626,71.49302,144.46233)" fill="#0000ff"/>
<symbol id="font_5_2">
<path d="M .22600001 .63600006 C .22600001 .66300007 .224 .66400006 .19600001 .66400006 C .132 .601 .041 .6 0 .6 L 0 .564 C .023999997 .564 .09000001 .564 .14500001 .592 L .14500001 .082 C .14500001 .049000004 .14500001 .036000004 .04500001 .036000004 L .0069999995 .036000004 L .0069999995 0 C .024999999 .001 .148 .004 .185 .004 C .21600002 .004 .34200005 .001 .36400003 0 L .36400003 .036000004 L .32600004 .036000004 C .22600001 .036000004 .22600001 .049000004 .22600001 .082 L .22600001 .63600006 Z "/>
</symbol>
<use xlink:href="#font_5_2" transform="matrix(6.9738,0,0,-6.9738,76.60215,143.914)" fill="#0000ff"/>
<symbol id="font_1_5">
<path d="M .106 .37800003 C .106 .407 .08200001 .43100003 .05300001 .43100003 C .024000004 .43100003 0 .407 0 .37800003 C 0 .349 .024000004 .32500003 .05300001 .32500003 C .08200001 .32500003 .106 .349 .106 .37800003 M .106 .053000004 C .106 .082 .08200001 .106000009 .05300001 .106000009 C .024000004 .106000009 0 .082 0 .053000004 C 0 .024 .024000004 0 .05300001 0 C .08200001 0 .106 .024 .106 .053000004 Z "/>
</symbol>
<use xlink:href="#font_1_5" transform="matrix(9.9626,0,0,-9.9626,83.93578,142.42)" fill="#0000ff"/>
<symbol id="font_6_1">
<path d="M .252 .314 L .28800003 .314 L .43800003 .082 C .448 .066 .47200004 .027 .483 .012 C .49000005 0 .493 0 .51600006 0 L .65400007 0 C .67200008 0 .68700006 0 .68700006 .018000002 C .68700006 .026 .68100008 .033 .67200008 .035 C .63500007 .043 .5860001 .109000008 .56200006 .141 C .55500009 .15100001 .50500008 .21700001 .43800003 .32500003 C .52700009 .34100003 .61300006 .379 .61300006 .49800004 C .61300006 .637 .46600003 .68500009 .34800003 .68500009 L .034 .68500009 C .016 .68500009 0 .68500009 0 .66700008 C 0 .65000006 .019 .65000006 .027 .65000006 C .084 .65000006 .089 .643 .089 .59300008 L .089 .09200001 C .089 .042000005 .084 .035 .027 .035 C .019 .035 0 .035 0 .018000002 C 0 0 .016 0 .034 0 L .308 0 C .326 0 .34100003 0 .34100003 .018000002 C .34100003 .035 .324 .035 .31300003 .035 C .256 .035 .252 .043 .252 .09200001 L .252 .314 M .44500003 .363 C .47300003 .4 .476 .453 .476 .497 C .476 .545 .47000004 .59800007 .43800003 .63900008 C .47900004 .63000008 .57800009 .59900006 .57800009 .49800004 C .57800009 .43300004 .54800006 .38200004 .44500003 .363 M .252 .596 C .252 .61700007 .252 .65000006 .314 .65000006 C .39900003 .65000006 .441 .615 .441 .497 C .441 .36800004 .41000004 .349 .252 .349 L .252 .596 M .116 .035 C .124 .053000004 .124 .081 .124 .09 L .124 .595 C .124 .605 .124 .632 .116 .65000006 L .23 .65000006 C .21700001 .634 .21700001 .614 .21700001 .59900006 L .21700001 .09 C .21700001 .080000009 .21700001 .053000004 .22500001 .035 L .116 .035 M .32900004 .314 C .33600004 .31500004 .34 .316 .34800003 .316 C .363 .316 .38500003 .31800003 .4 .32000003 C .41500003 .296 .52300009 .11800001 .60600009 .035 L .50900009 .035 L .32900004 .314 Z "/>
</symbol>
<use xlink:href="#font_6_1" transform="matrix(9.9626,0,0,-9.9626,88.77341,142.42)" fill="#0000ff"/>
<symbol id="font_5_1">
<path d="M .39300005 .344 L .69900009 .344 C .7120001 .344 .73600009 .344 .73600009 .368 C .73600009 .393 .71300008 .393 .69900009 .393 L .39300005 .393 L .39300005 .70000007 C .39300005 .71300008 .39300005 .73700007 .36900003 .73700007 C .34400005 .73700007 .34400005 .71400007 .34400005 .70000007 L .34400005 .393 L .037000009 .393 C .024000004 .393 0 .393 0 .36900003 C 0 .344 .023000002 .344 .037000009 .344 L .34400005 .344 L .34400005 .037000009 C .34400005 .024000004 .34400005 0 .36800004 0 C .39300005 0 .39300005 .023000002 .39300005 .037000009 L .39300005 .344 Z "/>
</symbol>
<use xlink:href="#font_5_1" transform="matrix(6.9738,0,0,-6.9738,96.29717,139.1289)" fill="#0000ff"/>
<symbol id="font_0_2">
<path d="M .77900007 .24100001 C .72400006 .19900002 .697 .158 .689 .14500001 C .64400008 .076000008 .63600006 .013000001 .63600006 .012000001 C .63600006 0 .648 0 .656 0 C .67300006 0 .674 .0020000004 .67800006 .020000002 C .70100006 .11800001 .76000007 .20200002 .873 .24800003 C .88500007 .252 .888 .254 .888 .261 C .888 .268 .882 .27100004 .88000008 .272 C .836 .28900004 .71500006 .33900003 .67700007 .507 C .674 .519 .67300006 .522 .656 .522 C .648 .522 .63600006 .522 .63600006 .51 C .63600006 .508 .64500007 .44500003 .68700006 .37800003 C .707 .34800003 .736 .31300003 .77900007 .28100003 L .036000004 .28100003 C .018000003 .28100003 0 .28100003 0 .261 C 0 .24100001 .018000003 .24100001 .036000004 .24100001 L .77900007 .24100001 Z "/>
</symbol>
<use xlink:href="#font_0_2" transform="matrix(9.9626,0,0,-9.9626,105.738948,142.52959)" fill="#0000ff"/>
<use xlink:href="#font_6_1" transform="matrix(9.9626,0,0,-9.9626,118.0804,142.42)" fill="#0000ff"/>
<use xlink:href="#font_5_1" transform="matrix(6.9738,0,0,-6.9738,125.604167,139.1289)" fill="#0000ff"/>
<use xlink:href="#font_4_2" transform="matrix(9.9626,0,0,-9.9626,71.49302,156.81732)" fill="#ff0000"/>
<symbol id="font_7_1">
<path d="M .63600006 0 C .65200009 0 .67600008 0 .67600008 .023999989 C .67600008 .048999996 .65300008 .048999996 .63600006 .048999996 L .04 .048999996 C .023999997 .048999996 0 .048999996 0 .025000006 C 0 0 .02300001 0 .04 0 L .63600006 0 Z "/>
</symbol>
<use xlink:href="#font_7_1" transform="matrix(6.9738,0,0,-6.9738,77.668178,148.93692)" fill="#ff0000"/>
<use xlink:href="#font_5_2" transform="matrix(6.9738,0,0,-6.9738,83.901149,150.513)" fill="#ff0000"/>
<use xlink:href="#font_5_2" transform="matrix(6.9738,0,0,-6.9738,76.60215,157.43199)" fill="#ff0000"/>
<use xlink:href="#font_1_5" transform="matrix(9.9626,0,0,-9.9626,91.23479,154.775)" fill="#ff0000"/>
<use xlink:href="#font_6_1" transform="matrix(9.9626,0,0,-9.9626,96.0724,154.775)" fill="#ff0000"/>
<use xlink:href="#font_5_1" transform="matrix(6.9738,0,0,-6.9738,103.59617,151.4849)" fill="#ff0000"/>
<use xlink:href="#font_0_2" transform="matrix(9.9626,0,0,-9.9626,113.03794,154.88459)" fill="#ff0000"/>
<use xlink:href="#font_6_1" transform="matrix(9.9626,0,0,-9.9626,125.379398,154.775)" fill="#ff0000"/>
<use xlink:href="#font_5_1" transform="matrix(6.9738,0,0,-6.9738,132.90317,151.4849)" fill="#ff0000"/>
</g>
<symbol id="font_4_3">
<path d="M .305 .31300003 C .311 .33900003 .334 .43100003 .404 .43100003 C .409 .43100003 .433 .43100003 .454 .418 C .426 .41300003 .40600003 .388 .40600003 .36400003 C .40600003 .34800003 .417 .32900004 .444 .32900004 C .46600003 .32900004 .498 .34700004 .498 .38700003 C .498 .43900005 .439 .45300005 .405 .45300005 C .347 .45300005 .312 .40000005 .3 .37700004 C .275 .44300003 .221 .45300005 .19200002 .45300005 C .08800001 .45300005 .031000002 .32400004 .031000002 .29900003 C .031000002 .28900004 .041 .28900004 .043000007 .28900004 C .051000008 .28900004 .054000006 .291 .056 .3 C .09 .40600003 .156 .43100003 .19000001 .43100003 C .209 .43100003 .244 .42200003 .244 .36400003 C .244 .33300004 .22700002 .26600004 .19000001 .126 C .17400001 .064 .13900002 .022000002 .095000009 .022000002 C .08900001 .022000002 .06600001 .022000002 .045 .035 C .07000001 .040000004 .09200001 .061 .09200001 .089 C .09200001 .116000007 .07000001 .124000009 .055000009 .124000009 C .025 .124000009 0 .098000008 0 .06600001 C 0 .020000002 .050000006 0 .094000007 0 C .16000001 0 .19600001 .07000001 .19900002 .076000008 C .21100001 .039 .24700003 0 .307 0 C .41 0 .467 .12900001 .467 .15400002 C .467 .16400002 .458 .16400002 .455 .16400002 C .446 .16400002 .444 .16000001 .442 .15300001 C .409 .046 .341 .022000002 .30900003 .022000002 C .27 .022000002 .254 .054 .254 .08800001 C .254 .11000001 .26 .13200002 .271 .17600002 L .305 .31300003 Z "/>
</symbol>
<use xlink:href="#font_4_3" transform="matrix(9.9626,0,0,-9.9626,152.66391,90.93259)"/>
<symbol id="font_4_4">
<path d="M .45700003 .586 C .461 .6 .461 .602 .461 .609 C .461 .62700006 .447 .63600006 .432 .63600006 C .42200003 .63600006 .40600003 .63 .397 .615 C .395 .61 .387 .579 .38300003 .561 C .37600003 .535 .36900003 .508 .363 .48100005 L .318 .301 C .314 .286 .271 .21600002 .20500002 .21600002 C .15400002 .21600002 .143 .26000003 .143 .29700003 C .143 .34300003 .16000001 .40500004 .194 .49300004 C .21000001 .53400006 .21400002 .545 .21400002 .56500008 C .21400002 .61 .18200001 .6470001 .13200002 .6470001 C .037 .6470001 0 .50200006 0 .49300004 C 0 .48300005 .01 .48300005 .012 .48300005 C .022000002 .48300005 .023 .485 .028000003 .50100007 C .055000009 .595 .095000009 .625 .12900001 .625 C .13700001 .625 .15400002 .625 .15400002 .59300008 C .15400002 .568 .14400001 .54200008 .13700001 .523 C .097 .41700004 .079 .36 .079 .31300003 C .079 .224 .142 .194 .201 .194 C .24000003 .194 .274 .21100001 .30200003 .23900002 C .289 .187 .277 .13800001 .237 .08500001 C .21100001 .051 .17300001 .022 .127 .022 C .113000009 .022 .068 .025000006 .051000008 .06400001 C .067 .06400001 .080000009 .06400001 .094000007 .076000008 C .104 .08500001 .11400001 .098000008 .11400001 .117000009 C .11400001 .148 .087000008 .15200001 .07700001 .15200001 C .054000006 .15200001 .021 .136 .021 .087000008 C .021 .037 .065000008 0 .127 0 C .23 0 .333 .091000009 .361 .20400001 L .45700003 .586 Z "/>
</symbol>
<use xlink:href="#font_4_4" transform="matrix(9.9626,0,0,-9.9626,71.25392,10.050329)"/>
</g>
</svg>
